<svg width="37" height="53" viewBox="0 0 37 53" fill="none" xmlns="http://www.w3.org/2000/svg">
<path d="M0 8.91589C5.92554 8.91589 11.6198 6.61606 15.8832 2.50085L18.4742 0L21.0651 2.50085C25.3286 6.61606 31.0229 8.91589 36.9484 8.91589V45.5701L18.4742 53L0 45.5701V8.91589Z" fill="#234888"/>
<path d="M14.2042 14.1381H19.5479V14.2787C19.2901 14.2787 19.1026 14.6537 18.9854 15.4037V15.8959C18.9854 16.3177 20.3448 20.6771 23.0635 28.974L23.2745 29.7474L25.1026 28.7631H25.2432V28.8334C24.8799 29.5951 24.3643 30.3216 23.6964 31.0131C24.8331 34.5404 25.5596 36.6498 25.876 37.3412C26.3214 37.8568 26.7667 38.1849 27.212 38.3256V38.4662H20.1104V38.3959C20.4503 38.0795 20.8487 37.8216 21.3057 37.6224C21.4932 37.3763 21.587 37.1654 21.587 36.9896V36.7787C21.587 36.2748 21.1651 34.8216 20.3214 32.4193C19.3018 32.4193 17.2862 31.0834 14.2745 28.4115C12.1182 34.9857 11.0401 38.4779 11.0401 38.8881V39.0287C11.0401 39.4154 11.3448 39.7201 11.9542 39.9427V40.0834L9.28229 40.1537L6.46979 40.0834V39.9427C7.12604 39.9427 7.6651 39.0052 8.08698 37.1302L11.3214 27.1459C10.4893 27.1459 9.55182 27.6146 8.50885 28.5521L9.21198 29.9584C8.30963 29.056 7.84088 28.5404 7.80573 28.4115V28.2709C9.22369 26.5834 10.5128 25.7396 11.6729 25.7396C13.6885 19.8685 14.6964 16.5873 14.6964 15.8959V15.5443C14.6964 14.9466 14.5323 14.5013 14.2042 14.2084V14.1381ZM16.6651 20.3256L14.6964 27.0052C16.9932 28.9974 18.6573 30.0521 19.6885 30.1693L16.7354 20.3256H16.6651Z" fill="white"/>
</svg>
