<svg width="50" height="51" viewBox="0 0 50 51" fill="none" xmlns="http://www.w3.org/2000/svg">
<path d="M42.7281 7.76884C40.4362 5.45476 37.7065 3.62023 34.6982 2.37225C31.6899 1.12428 28.4631 0.487847 25.2062 0.500085C11.5594 0.500085 0.437476 11.6188 0.424976 25.2688C0.424976 29.6407 1.56873 33.8938 3.7281 37.6595L0.224976 50.5001L13.3625 47.0563C16.9952 49.0383 21.068 50.0753 25.2062 50.072H25.2187C38.8687 50.072 49.9875 38.9532 50 25.2907C50.0028 22.0346 49.3614 18.8102 48.1128 15.803C46.8643 12.7959 45.0363 10.0654 42.7281 7.76884ZM25.2062 45.8782C21.5162 45.8753 17.8944 44.8825 14.7187 43.0032L13.9687 42.5532L6.17498 44.597L8.25623 36.9938L7.76873 36.2095C5.70562 32.9292 4.6145 29.1314 4.62185 25.2563C4.62185 13.9251 13.8625 4.68134 25.2187 4.68134C27.9242 4.67648 30.6038 5.20719 33.1032 6.24287C35.6025 7.27855 37.8722 8.79871 39.7812 10.7157C41.6965 12.6255 43.215 14.8955 44.249 17.3949C45.2831 19.8942 45.8123 22.5734 45.8062 25.2782C45.7937 36.6501 36.5531 45.8782 25.2062 45.8782ZM36.5031 30.4595C35.8875 30.1501 32.8469 28.6532 32.275 28.4407C31.7062 28.2376 31.2906 28.1313 30.8844 28.7501C30.4687 29.3657 29.2812 30.7688 28.925 31.172C28.5687 31.5876 28.2 31.6345 27.5812 31.3282C26.9656 31.0157 24.9687 30.3657 22.6062 28.2501C20.7625 26.6095 19.5281 24.5782 19.1594 23.9626C18.8031 23.3438 19.125 23.0126 19.4344 22.7032C19.7062 22.4282 20.05 21.9782 20.3594 21.622C20.6719 21.2657 20.775 21.0032 20.9781 20.5907C21.1812 20.172 21.0844 19.8157 20.9312 19.5063C20.775 19.197 19.5406 16.1438 19.0187 14.9126C18.5187 13.697 18.0094 13.8657 17.6281 13.8501C17.2719 13.8282 16.8562 13.8282 16.4406 13.8282C16.1268 13.8362 15.818 13.9089 15.5335 14.0417C15.2491 14.1745 14.9951 14.3646 14.7875 14.6001C14.2187 15.2188 12.6281 16.7157 12.6281 19.7688C12.6281 22.822 14.8469 25.7563 15.1594 26.172C15.4656 26.5876 19.5156 32.8345 25.7312 35.522C27.2 36.1626 28.3562 36.5407 29.2594 36.8282C30.7437 37.3032 32.0844 37.2313 33.1531 37.0782C34.3406 36.897 36.8125 35.5782 37.3344 34.1313C37.8469 32.6813 37.8469 31.4438 37.6906 31.1845C37.5375 30.922 37.1219 30.7688 36.5031 30.4595Z" fill="#0AA81D"/>
</svg>
