<svg width="51" height="51" viewBox="0 0 51 51" fill="none" xmlns="http://www.w3.org/2000/svg">
<g clip-path="url(#clip0_65_368)">
<path d="M50.225 25.4999C50.225 32.1303 47.5911 38.4892 42.9026 43.1776C38.2142 47.866 31.8554 50.4999 25.225 50.4999C18.5946 50.4999 12.2357 47.866 7.54731 43.1776C2.8589 38.4892 0.224976 32.1303 0.224976 25.4999C0.224976 18.8695 2.8589 12.5107 7.54731 7.82224C12.2357 3.13383 18.5946 0.499912 25.225 0.499912C31.8554 0.499912 38.2142 3.13383 42.9026 7.82224C47.5911 12.5107 50.225 18.8695 50.225 25.4999ZM26.1218 18.9562C23.6885 19.9687 18.8281 22.0624 11.5406 25.2374C10.3594 25.7062 9.73956 26.1666 9.68123 26.6187C9.58748 27.378 10.5406 27.678 11.8375 28.0874L12.3844 28.2593C13.6594 28.6749 15.3781 29.1593 16.2687 29.178C17.0812 29.1989 17.9854 28.8655 18.9812 28.178C25.7916 23.5822 29.3062 21.2593 29.525 21.2093C29.6812 21.1718 29.9 21.128 30.0437 21.2593C30.1875 21.3905 30.175 21.6343 30.1594 21.6999C30.0656 22.103 26.325 25.578 24.3906 27.378C23.7875 27.9405 23.3594 28.3374 23.2719 28.428C23.0792 28.625 22.8834 28.8188 22.6843 29.0093C21.4968 30.153 20.6094 31.0093 22.7312 32.4093C23.7531 33.0843 24.5718 33.6374 25.3875 34.1937C26.275 34.7999 27.1625 35.403 28.3125 36.1593C28.6041 36.351 28.8854 36.5457 29.1562 36.7437C30.1906 37.4812 31.125 38.1437 32.2719 38.0374C32.9406 37.9749 33.6312 37.3499 33.9812 35.4749C34.8093 31.0468 36.4375 21.4562 36.8125 17.503C36.836 17.1744 36.8224 16.8442 36.7719 16.5187C36.7415 16.2562 36.6145 16.0144 36.4156 15.8405C36.1309 15.645 35.7922 15.5434 35.4468 15.5499C34.5093 15.5655 33.0625 16.0687 26.1218 18.9562Z" fill="#4393F7"/>
</g>
<defs>
<clipPath id="clip0_65_368">
<rect width="50" height="50" fill="white" transform="translate(0.224976 0.499912)"/>
</clipPath>
</defs>
</svg>
